<svg width="24" height="24" viewBox="0 0 24 24" fill="none" xmlns="http://www.w3.org/2000/svg">
  <path fill-rule="evenodd" clip-rule="evenodd" d="M12.4026 19.4904C19.2524 19.4904 24.8052 15.1274 24.8052 9.74522C24.8052 4.36308 19.2524 0 12.4026 0C5.55284 0 0 4.36308 0 9.74522C0 15.1274 5.55284 19.4904 12.4026 19.4904ZM5.8425 9.86436C5.8425 12.412 6.92688 14.3717 9.02788 14.3717C10.4173 14.3717 11.287 13.5511 11.6937 12.461C12.1342 11.2851 11.5694 10.9055 11.1063 10.9055C10.7109 10.9055 10.4286 11.1872 10.3043 11.7628C10.1236 12.5957 9.64915 13.0121 8.994 13.0121C7.9322 13.0121 7.33353 11.6893 7.33353 9.86436C7.33353 8.02714 7.88702 6.71658 9.00529 6.71658C9.59267 6.71658 10.101 7.12077 10.293 7.9414C10.4173 8.50481 10.6771 8.73753 11.0611 8.73753C11.5581 8.73753 12.0664 8.34559 11.6937 7.29225C11.287 6.14092 10.3608 5.35703 9.06177 5.35703C6.893 5.35703 5.8425 7.31674 5.8425 9.86436ZM13.3723 13.3918C13.3723 13.992 13.6321 14.3227 14.1065 14.3227C14.581 14.3227 14.8521 13.992 14.8521 13.3918V10.44H17.5065V13.3918C17.5065 13.992 17.7663 14.3227 18.2408 14.3227C18.7152 14.3227 18.9863 13.992 18.9863 13.3918V6.33689C18.9863 5.73673 18.7265 5.40603 18.2521 5.40603C17.7776 5.40603 17.5065 5.73673 17.5065 6.33689V9.08048H14.8521V6.33689C14.8521 5.73673 14.5923 5.40603 14.1178 5.40603C13.6434 5.40603 13.3723 5.73673 13.3723 6.33689V13.3918Z" fill="#0A2841"/>
</svg>
